<?xml version="1.0" encoding="UTF-8"?>
<svg width="381px" height="404px" viewBox="0 0 381 404" version="1.1" xmlns="http://www.w3.org/2000/svg" xmlns:xlink="http://www.w3.org/1999/xlink">
    <!-- Generator: Sketch 45.2 (43514) - http://www.bohemiancoding.com/sketch -->
    <title>Group 2</title>
    <desc>Created with Sketch.</desc>
    <defs></defs>
    <g id="Page-1" stroke="none" stroke-width="1" fill="none" fill-rule="evenodd">
        <g id="Artboard" transform="translate(-66.000000, -57.000000)">
            <g id="Group-2" transform="translate(66.000000, 57.000000)">
                <path d="M379.369415,143.096322 C378.513911,127.386488 373.643251,114.983413 359.321171,106.84242 C280.632793,62.1141773 258.51359,31.666043 234.692927,14.1730506 C173.895754,-30.4740905 88.8150944,43.9402627 73.8730421,56.8721041 C58.9309898,69.8039455 12.0611292,96.6868039 4.52819255,122.609192 C-1.74525633,149.933165 -3.09350796,234.307361 10.9647752,269.495878 C19.0414907,251.386388 0.713282887,145.115931 56.6065536,139.66532 C69.8956996,138.369387 89.9531584,138.509193 104.586365,139.66532 C119.219571,140.821448 156.874764,146.658979 189.756767,146.658979 C212.25497,146.658979 222.245317,147.602517 239.703715,145.312728 C244.188874,145.402527 248.94812,145.200009 253.972484,144.623479 C273.09141,142.429642 301.210639,144.946518 318.77107,146.658979 C374.664341,152.10959 360.769037,251.647234 368.845752,269.756724 C380.358804,240.939036 382.567644,188.17884 379.657503,144.650895 C379.626034,144.180202 379.528767,143.660164 379.369415,143.096322 Z" id="Combined-Shape" fill="#000000"></path>
                <g id="Group" transform="translate(24.639961, 12.759541)">
                    <path d="M71.7216837,383.778337 C100.985623,383.778337 143.443367,349.681391 143.443367,307.620677 C143.443367,265.559963 111.332476,231.463017 71.7216837,231.463017 C32.1108916,231.463017 0,265.559963 0,307.620677 C0,349.681391 42.457744,383.778337 71.7216837,383.778337 Z" id="Oval" stroke="#000000" stroke-width="14"></path>
                    <path d="M256.705274,383.778337 C285.969214,383.778337 328.426958,349.681391 328.426958,307.620677 C328.426958,265.559963 296.316067,231.463017 256.705274,231.463017 C217.094482,231.463017 184.983591,265.559963 184.983591,307.620677 C184.983591,349.681391 227.441335,383.778337 256.705274,383.778337 Z" id="Oval-Copy" stroke="#000000" stroke-width="14"></path>
                    <path d="M139.153052,298.289167 C139.153052,298.289167 154.608991,295.553065 162.138091,295.592529 C169.667191,295.631993 185.12313,298.530122 185.12313,298.530122" id="Path-2" stroke="#000000" stroke-width="14"></path>
                    <path d="M70.9691252,314.133359 C97.1182246,314.133359 97.1182246,286.918064 97.1182246,286.918064 C97.1182246,286.918064 81.046681,286.918064 70.9691252,286.918064 C68.3076357,286.918064 66.0935955,286.918064 63.8136202,286.918064 C63.8136202,293.284886 53.431947,293.075939 53.431947,286.918064 C51.1331497,286.918064 46.3547755,286.918064 46.3547755,286.918064 C46.3547755,286.918064 44.8200258,314.133359 70.9691252,314.133359 Z" id="Oval-2" fill="#000000"></path>
                    <path d="M255.946368,314.133359 C282.095468,314.133359 282.095468,286.918064 282.095468,286.918064 C282.095468,286.918064 266.023924,286.918064 255.946368,286.918064 C253.284879,286.918064 251.070839,286.918064 248.790863,286.918064 C248.790863,293.284886 238.40919,293.075939 238.40919,286.918064 C236.110393,286.918064 231.332019,286.918064 231.332019,286.918064 C231.332019,286.918064 229.797269,314.133359 255.946368,314.133359 Z" id="Oval-2-Copy" fill="#000000"></path>
                    <path d="M198.64243,219.572736 C204.756486,209.952846 206.079932,209.352831 219.823506,200.996583 C237.317623,190.359963 240.629551,180.590039 261.117811,181.586999 C285.973516,182.79648 298.616721,192.247853 310.511437,205.409465 C317.335889,212.960782 308.694642,223.460581 298.556146,223.012858 C284.65918,222.399159 282.786173,205.502303 262.440513,203.286621 C246.52145,201.553003 219.584181,220.180332 211.854161,224.829181 C207.3014,227.567221 204.065971,230.9244 201.461136,229.888035 C197.460106,228.296178 195.575302,224.398572 198.64243,219.572736 Z" id="Path-3" fill="#000000"></path>
                    <path d="M120.911832,214.705945 C107.243229,205.684635 105.860755,206.081721 90.9804095,202.435762 C54.3373718,196.235955 63.7126432,196.536528 44.0989338,200.785024 C20.847439,209.537713 23.2313935,208.98477 16.8085602,214.705945 C14.8081722,220.770434 17.3883333,224.757116 27.52683,224.309394 C39.5774217,217.482566 46.3222026,217.778042 66.6678627,215.562359 C83.3967161,214.705945 108.201492,221.37803 115.931512,226.026879 C120.484274,228.764919 126.538408,229.885328 129.143243,228.848963 C133.144274,227.257105 129.143243,220.138696 120.911832,214.705945 Z" id="Path-3" fill="#000000"></path>
                    <path d="M96.6715855,7.18434618 C100.993059,4.71925212 103.724304,3.06981839 110.89328,-0.00010318714 C107.653853,21.7282587 107.008437,28.2831276 128.377704,67.4938809 C107.008437,43.7646213 100.993059,29.9942243 96.6715855,7.18434618 Z" id="Path-4" fill="#FFFFFF"></path>
                </g>
            </g>
        </g>
    </g>
</svg>