<?xml version="1.0" standalone="no"?>
<!DOCTYPE svg PUBLIC "-//W3C//DTD SVG 20010904//EN"
 "http://www.w3.org/TR/2001/REC-SVG-20010904/DTD/svg10.dtd">
<svg version="1.0" xmlns="http://www.w3.org/2000/svg"
 width="384.000000pt" height="384.000000pt" viewBox="0 0 384.000000 384.000000"
 preserveAspectRatio="xMidYMid meet">
<metadata>
Created by potrace 1.11, written by Peter Selinger 2001-2013
</metadata>
<g transform="translate(0.000000,384.000000) scale(0.100000,-0.100000)"
fill="#000000" stroke="none">
<path d="M1775 3395 c-72 -16 -225 -70 -251 -90 -14 -10 -19 -29 -22 -87 -5
-86 21 -175 88 -308 22 -44 38 -80 36 -80 -3 0 -32 36 -65 80 -67 89 -111 175
-136 268 -10 34 -21 62 -26 62 -13 0 -179 -115 -259 -180 -41 -33 -153 -119
-249 -192 -265 -199 -340 -283 -369 -412 -20 -87 -28 -570 -12 -723 12 -117
30 -223 52 -296 20 -67 28 -19 38 225 18 442 75 607 235 680 74 33 322 37 570
9 99 -11 252 -25 340 -32 151 -11 228 -10 726 7 204 7 418 -7 493 -32 97 -33
175 -136 215 -284 29 -108 39 -181 56 -399 8 -107 19 -199 24 -204 9 -9 43
107 60 208 18 107 31 296 31 465 0 294 -23 411 -93 478 -18 17 -92 67 -165
111 -273 165 -419 274 -687 509 -158 139 -239 190 -341 217 -70 18 -207 18
-289 0z"/>
<path d="M2560 1949 c-26 -5 -70 -26 -105 -51 -33 -23 -99 -68 -148 -100 -125
-84 -180 -169 -127 -198 23 -12 29 -10 131 56 115 75 235 127 299 132 78 6
120 -10 184 -69 69 -63 111 -81 158 -69 41 12 64 34 73 72 6 23 0 35 -43 80
-28 29 -74 67 -104 85 -84 51 -227 79 -318 62z"/>
<path d="M1030 1816 c-202 -58 -295 -152 -177 -180 18 -4 40 0 65 13 60 30
148 45 282 45 136 1 234 -19 341 -68 139 -65 161 1 30 88 -80 53 -123 68 -271
95 -128 23 -203 25 -270 7z"/>
<path d="M1083 1616 c-114 -28 -234 -106 -316 -206 -147 -179 -179 -447 -77
-649 44 -89 116 -177 193 -237 132 -103 231 -139 363 -132 75 4 93 9 181 53
82 40 112 62 183 134 122 123 181 241 196 392 l6 67 47 6 c25 3 70 2 100 -2
l54 -7 4 -50 c2 -27 9 -72 15 -100 57 -258 331 -494 573 -494 242 0 509 229
574 494 18 69 15 211 -4 286 -33 127 -115 257 -209 332 -296 234 -716 135
-880 -206 -24 -51 -47 -106 -51 -123 l-6 -30 -117 3 -117 3 -22 65 c-67 199
-226 351 -418 400 -71 18 -199 18 -272 1z m218 -96 c92 -18 174 -63 248 -137
171 -174 201 -433 72 -629 -77 -118 -194 -209 -314 -246 -88 -26 -146 -20
-241 25 -228 109 -360 331 -327 553 41 286 297 484 562 434z m1391 -1 c120
-25 244 -109 308 -209 73 -113 104 -266 80 -385 -39 -193 -232 -387 -423 -427
-114 -24 -251 34 -372 156 -119 121 -174 256 -162 401 12 133 63 244 158 336
112 111 266 158 411 128z"/>
<path d="M1030 1133 c1 -41 33 -105 69 -135 34 -30 101 -44 155 -34 72 14 133
80 151 164 l7 32 -125 0 c-99 0 -127 -3 -137 -15 -7 -8 -20 -15 -30 -15 -10 0
-23 7 -30 15 -7 8 -23 15 -36 15 -20 0 -24 -5 -24 -27z"/>
<path d="M2421 1114 c19 -103 75 -149 179 -149 42 1 76 7 98 18 41 23 82 85
89 136 l6 41 -126 0 c-102 0 -126 -3 -131 -15 -3 -8 -14 -15 -25 -15 -11 0
-26 7 -35 15 -8 8 -26 15 -39 15 -24 0 -24 -2 -16 -46z"/>
</g>
</svg>
