<?xml version="1.0" encoding="UTF-8"?>
<svg width="48px" height="47px" viewBox="0 0 48 47" version="1.1" xmlns="http://www.w3.org/2000/svg" xmlns:xlink="http://www.w3.org/1999/xlink">
    <!-- Generator: Sketch 46.2 (44496) - http://www.bohemiancoding.com/sketch -->
    <title>Group</title>
    <desc>Created with Sketch.</desc>
    <defs>
        <filter x="-8.0%" y="-5.7%" width="115.9%" height="115.9%" filterUnits="objectBoundingBox" id="filter-1">
            <feOffset dx="0" dy="1" in="SourceAlpha" result="shadowOffsetOuter1"></feOffset>
            <feGaussianBlur stdDeviation="1" in="shadowOffsetOuter1" result="shadowBlurOuter1"></feGaussianBlur>
            <feColorMatrix values="0 0 0 0 0   0 0 0 0 0   0 0 0 0 0  0 0 0 0.5 0" type="matrix" in="shadowBlurOuter1" result="shadowMatrixOuter1"></feColorMatrix>
            <feMerge>
                <feMergeNode in="shadowMatrixOuter1"></feMergeNode>
                <feMergeNode in="SourceGraphic"></feMergeNode>
            </feMerge>
        </filter>
        <circle id="path-2" cx="22" cy="22" r="22"></circle>
    </defs>
    <g id="Page-1" stroke="none" stroke-width="1" fill="none" fill-rule="evenodd">
        <g id="launcher">
            <g id="Group" filter="url(#filter-1)" transform="translate(2.000000, 0.000000)">
                <mask id="mask-3" fill="white">
                    <use xlink:href="#path-2"></use>
                </mask>
                <use id="Oval" fill="#4E215B" xlink:href="#path-2"></use>
                <g id="turns_logo" mask="url(#mask-3)">
                    <g transform="translate(6.617188, 16.414062)">
                        <path d="M1.2675431,7.12574207 C1.26700896,7.10214321 1.26647482,3.94219687 1.26647482,3.94219687 C1.27637048,3.94753611 1.28854327,3.95083995 1.30181245,3.95083995 L2.98792632,3.95083995 C3.02084627,3.95083995 3.04755331,3.93134139 3.04755331,3.90730005 L3.04755331,2.66715046 C3.04755331,2.64313862 3.02084627,2.62364006 2.98792632,2.62364006 L1.30181245,2.62364006 C1.28854327,2.62364006 1.27637048,2.62691441 1.26647482,2.63225365 L1.26647482,0.0463790685 C1.26647482,0.0223377299 1.24789234,0.00283917182 1.22498051,0.00283917182 L0.0431236758,0.00283917182 C0.0202118461,0.00283917182 0.00162936828,0.0223377299 0.00162936828,0.0463790685 C0.00162936828,0.0463790685 0.0021635091,7.1022944 0.0021635091,7.12757099 C0.0021635091,9.29955067 1.67441784,11.0564862 3.72512499,11.1636545 C3.74882397,11.1648934 3.76872774,11.1448344 3.76872774,11.1199376 L3.76872774,9.87731015 C3.76872774,9.85447825 3.75186014,9.83580566 3.73012904,9.83415373 C2.37557605,9.73197067 1.3023747,8.56435808 1.2675431,7.12574207 Z" id="Fill-1" fill="#FFFFFE"></path>
                        <path d="M10.3165351,0.0463790685 C10.3165351,0.0223377299 10.3351176,0.00283917182 10.3580294,0.00283917182 L11.5398862,0.00283917182 C11.5627981,0.00283917182 11.5813805,0.0223377299 11.5813805,0.0463790685 C11.5813805,0.0463790685 11.5663965,7.05370655 11.5663965,7.07291013 C11.5565289,9.33320893 9.81028205,11.156847 7.65522065,11.1628943 L7.65522065,9.84143988 C9.11764197,9.83539268 10.3165351,8.59389143 10.3165351,7.05793013 C10.316507,7.04391831 10.3165351,0.0463790685 10.3165351,0.0463790685 Z" id="Fill-3" fill="#F85A3E"></path>
                        <path d="M5.18799611,0.0463790685 C5.18799611,0.0223377299 5.16941364,0.00283917182 5.14652992,0.00283917182 L3.96464497,0.00283917182 C3.94173314,0.00283917182 3.92315066,0.0223377299 3.92315066,0.0463790685 L3.92315066,7.07375077 C3.93269609,9.26650995 5.60631671,11.1619269 7.6618618,11.1619269 C8.56603271,11.1619269 8.55899853,9.83685799 7.70604331,9.83685799 C6.30968605,9.83685799 5.18799611,8.53954571 5.18799611,7.05407805 C5.18802423,7.04006622 5.18799611,0.0463790685 5.18799611,0.0463790685 Z" id="Fill-2" fill="#FFFFFE"></path>
                        <path d="M17.7276264,11.1254834 C17.7276264,11.1495247 17.7090721,11.1690232 17.6861602,11.1690232 L16.5042753,11.1690232 C16.4813635,11.1690232 16.4628091,11.1495247 16.4628091,11.1254834 C16.4628091,11.1254834 16.4777932,4.11867916 16.4777932,4.09895229 C16.4876326,1.83865349 18.2339076,0.00888637969 20.388969,0.00283917182 L20.388969,1.33039304 C18.9265196,1.33646975 17.7276264,2.58271786 17.7276264,4.11867916 L17.7276264,11.1254834 Z" id="Fill-5" fill="#F85A3E"></path>
                        <path d="M23.0248415,11.1254834 C23.0248415,11.1495247 23.0434239,11.1690232 23.0663358,11.1690232 L24.2482207,11.1690232 C24.2711044,11.1690232 24.2896869,11.1495247 24.2896869,11.1254834 C24.2896869,11.1254834 24.2747029,4.11815587 24.2747029,4.09895229 C24.2648726,1.84719932 22.5317078,0.0220381149 20.3882854,0.00230634914 C19.4942339,0.00230634914 19.4992894,1.33183152 20.3671675,1.33183152 C21.8253562,1.34316232 23.0248415,2.58784269 23.0248415,4.12053765" id="Fill-4" fill="#FFFFFE"></path>
                        <path d="M13.5702117,11.1254834 C13.5702117,11.1495247 13.5516292,11.1690232 13.5287174,11.1690232 L12.3468324,11.1690232 C12.3239487,11.1690232 12.3053662,11.1495247 12.3053662,11.1254834 C12.3053662,11.1254834 12.3203503,4.11555564 12.3203503,4.09895229 C12.3302178,1.83865349 14.0764647,0.00888637969 16.2315261,0.00283917182 L16.2315261,1.33039304 C14.7691048,1.33646975 13.5702117,2.58539655 13.5702117,4.12135785" id="Fill-6" fill="#FFFFFE"></path>
                        <path d="M28.1576254,4.79736056 L27.8907799,4.79736056 C26.7108348,4.79697707 26.1829631,3.96756564 26.1829631,3.14552885 C26.1829631,2.70897944 26.329655,2.30535044 26.5960226,2.00894876 C26.8988523,1.67201604 27.3462937,1.49387414 27.8900209,1.49369715 C27.8902739,1.49369715 27.904527,0.195759852 27.904527,0.195759852 C26.7619717,0.195966342 26.0743357,0.697619108 25.6961078,1.11847528 C25.2124011,1.65667678 24.9460054,2.37656 24.9460054,3.14552885 C24.9460054,4.61116555 25.9572745,6.09491437 27.8900209,6.09529785 L28.1576254,6.09529785 C29.6334003,6.09529785 30.2939638,7.03972423 30.2939638,7.97568451 C30.2939638,8.46303047 30.1149423,8.91633507 29.7898754,9.25211735 C29.4073744,9.64722127 28.8429281,9.85607118 28.1576254,9.85607118 L25.1779069,9.85607118 L25.1779069,11.153979 L28.1576254,11.153979 C30.3722295,11.153979 31.5309215,9.55509722 31.5309215,7.97568451 C31.5309215,7.13777749 31.2207825,6.35597676 30.6576294,5.77426486 C30.226156,5.32860039 29.442206,4.79736056 28.1576254,4.79736056 Z" id="Fill-7" fill="#FFFFFE"></path>
                    </g>
                </g>
            </g>
        </g>
    </g>
</svg>